<svg width="96" height="96" viewBox="0 0 96 96" fill="none" xmlns="http://www.w3.org/2000/svg" role="img" aria-label="Birds Eye logo">
  <rect x="8" y="8" width="80" height="80" rx="20" fill="#071118"/>
  <path d="M18 48C25.8 31.8 36.3 24 48 24C59.7 24 70.2 31.8 78 48C70.2 64.2 59.7 72 48 72C36.3 72 25.8 64.2 18 48Z" fill="#0ED3FF"/>
  <path d="M25 48C31.7 37.1 39.3 31.7 48 31.7C56.7 31.7 64.3 37.1 71 48C64.3 58.9 56.7 64.3 48 64.3C39.3 64.3 31.7 58.9 25 48Z" fill="#4ADE80"/>
  <circle cx="48" cy="48" r="15" fill="#071118"/>
  <circle cx="48" cy="48" r="8" fill="#F4F7FB"/>
  <circle cx="51" cy="45" r="2.7" fill="#071118"/>
  <path d="M48 14V24M48 72V82M14 48H24M72 48H82" stroke="#F472B6" stroke-width="5" stroke-linecap="round"/>
  <path d="M31 31L24 24M65 31L72 24M31 65L24 72M65 65L72 72" stroke="#60A5FA" stroke-width="4" stroke-linecap="round"/>
</svg>
